# xmcd
#
# Track frame offsets:
#	150
#	11348
#	29454
#	48776
#	67056
#	79602
#	93845
#	114356
#	127554
#	142469
#
# Disc length: 2208 seconds
#
# Revision: 1
# Processed by: cddbd v1.5.1PL2 Copyright (c) Steve Scherf et al.
# Submitted via: audiograbber 1.83.01
#
DISCID=77089e0a
DTITLE=Dany Daraiche - Toi
DYEAR=1900
DGENRE=
TTITLE0=Je me suis laissé dire
TTITLE1=One small miracle/Un petit miracle
TTITLE2=Tout comme dans un rêve
TTITLE3=Toi
TTITLE4=J'ai besoin d'air
TTITLE5=Toujours plus loin
TTITLE6=Trente ans déjà
TTITLE7=Blue angel
TTITLE8=Où est passé l'amour
TTITLE9=Go rest hight on the mountain/Tu as quitter sans saluer
EXTD=Dany Daraiche
EXTT0=
EXTT1=
EXTT2=
EXTT3=
EXTT4=
EXTT5=
EXTT6=
EXTT7=
EXTT8=
EXTT9=
PLAYORDER=
